ply
format ascii 1.0
comment Created by Open3D
element vertex 1000
property double x
property double y
property double z
property double nx
property double ny
property double nz
property uchar red
property uchar green
property uchar blue
end_header
0.400129 0.018058 0.69895 0.314732 -0.947152 -0.0620237 254 50 157
0.49598 0.185014 0.993053 0.012193 0.292409 -0.956216 76 12 226
0.52337 0.0177701 0.808698 0.0474612 0.992136 -0.115815 28 113 206
0.731507 0.831623 0.924278 0.0599098 -0.0165735 0.998066 64 206 137
0.274124 0.409142 0.587883 0.775741 -0.630453 -0.0274637 124 150 93
0.299271 0.892637 0.582556 0.258633 0.92289 -0.285275 14 239 211
0.717592 0.395789 0.466087 0.818504 -0.197882 -0.539346 179 62 242
0.125197 0.333141 0.987043 -0.45601 -0.286427 0.842623 11 30 70
0.555766 0.811608 0.830937 0.691772 -0.603532 -0.396486 11 88 124
0.902877 0.320491 0.261263 0.027836 0.986539 0.161138 130 86 111
0.636713 0.872949 0.899703 0.2006 -0.338801 -0.919224 96 234 36
0.522383 0.719427 0.541771 0.536457 -0.0235327 -0.843599 250 10 229
0.0556391 0.154623 0.0753267 0.12967 0.227001 -0.965224 109 242 85
0.274855 0.612492 0.782564 -0.644591 -0.735537 -0.208538 172 231 174
0.832644 0.036191 0.137959 -0.0426952 -0.676453 -0.735247 141 179 248
0.683347 0.936783 0.353279 -0.184186 -0.981727 0.0478235 205 42 123
0.0716494 0.56981 0.320671 0.967457 -0.194253 -0.162148 34 203 148
0.476687 0.976977 0.346363 -0.0716216 0.985915 0.151136 208 41 48
0.79856 0.839004 0.00620891 0.240382 0.10819 -0.96463 139 82 72
0.45424 0.768428 0.312966 0.807386 -0.162352 -0.567247 157 172 68
0.696705 0.280495 0.922026 0.14978 -0.335227 -0.930155 230 116 104
0.106606 0.0871684 0.493777 0.0809732 0.961725 0.261779 108 117 94
0.0456728 0.357455 0.832851 0.970551 0.0366741 -0.238087 95 144 43
0.29732 0.0364122 0.362643 0.148859 -0.974251 -0.169342 77 133 128
0.765782 0.935626 0.363201 0.0250442 -0.984656 0.172701 161 67 5
0.864724 0.0381684 0.738754 -0.14899 0.956363 0.25134 95 246 34
0.589487 0.0901592 0.434662 -0.433308 0.900456 0.0377344 15 235 185
0.901489 0.866577 0.18589 0.883579 -0.132737 0.449075 129 41 22
0.927341 0.548937 0.175376 0.960448 0.278122 0.013739 50 250 184
0.0589533 0.298571 0.893709 0.914641 0.181746 -0.361109 111 72 27
0.000793928 0.441556 0.679326 0.995224 0.0556759 0.080188 254 58 219
0.561856 0.731969 0.837996 0.624455 -0.272178 -0.732103 245 141 21
0.440373 0.0419188 0.374776 -0.0765546 0.972867 0.218333 54 120 166
0.924974 0.443251 0.754091 0.961166 -0.242388 -0.131941 187 177 203
0.691333 0.162844 0.141282 0.379988 -0.377047 0.844656 6 148 34
0.398039 0.348481 0.44629 0.186638 0.797555 -0.573649 19 9 123
0.365862 0.444238 0.365676 -0.388749 0.804153 0.449681 121 185 48
0.092367 0.28677 0.224337 0.988129 0.0944857 0.121131 215 48 155
0.851532 0.807582 0.723948 0.897969 -0.367615 -0.241892 209 81 39
0.489932 0.828349 0.289676 -0.554079 0.671963 0.491389 149 232 145
0.400093 0.387908 0.064755 -0.00786969 -0.132098 0.991205 167 197 82
0.589532 0.694644 0.154742 -0.600946 0.722421 0.342011 131 78 171
0.614037 0.601545 0.483609 -0.46521 -0.802649 0.373275 189 151 153
0.276002 0.296277 0.0735556 0.266032 -0.247811 0.931567 7 38 39
0.783789 0.790795 0.651146 0.963512 -0.122753 -0.237856 217 124 48
0.965448 0.00341824 0.916715 0.69764 -0.627835 0.345139 163 158 120
0.53331 0.528894 0.406509 0.578277 0.627846 -0.520966 181 231 51
0.664522 0.939579 0.890868 0.1715 -0.339348 -0.924895 132 30 253
0.377277 0.799271 0.233262 -0.310183 -0.318561 0.895715 86 101 109
0.691316 0.617106 0.29125 -0.312218 -0.417822 -0.853197 27 53 101
0.521015 0.561884 0.729997 -0.693479 -0.510736 -0.508169 235 125 36
0.103803 0.0938468 0.0816529 0.0382585 -0.176096 0.983629 93 184 216
0.0202118 0.252885 0.676409 0.986543 0.161366 0.026342 98 131 215
0.164507 0.679989 0.856503 -0.576536 0.536854 0.61595 93 96 3
0.848564 0.298948 0.782915 0.695246 -0.156095 -0.701618 28 186 245
0.509777 0.66551 0.130939 -0.0963936 0.774685 0.624958 234 134 61
0.471402 0.642396 0.812568 0.953727 -0.119502 -0.275908 155 198 28
0.105336 0.531764 0.996906 0.475746 -0.148539 -0.86695 92 220 53
0.590284 0.172996 0.991393 -0.12122 -0.420574 0.899124 124 158 146
0.201733 0.0226402 0.687204 -0.208692 -0.977955 0.00714167 66 17 244
0.411596 0.151383 0.958015 0.00444769 -0.394102 0.919056 33 191 193
0.898816 0.218791 0.664435 0.991558 0.125674 -0.0319245 31 254 77
0.0802281 0.472324 0.143118 0.986308 0.0784916 -0.145035 205 54 122
0.478627 0.080998 0.337778 0.0719155 0.980478 0.183005 1 100 15
0.417987 0.361837 0.837579 0.999373 0.0161688 -0.0315046 249 35 2
0.183445 0.0285491 0.604722 0.000632601 0.993411 -0.114605 35 150 74
0.809691 0.243395 0.18515 0.169932 -0.124823 0.977518 142 99 49
0.668778 0.552157 0.694787 -0.605463 0.157236 -0.780187 154 92 255
0.1855 0.348979 0.699173 0.272803 -0.950937 -0.145939 37 77 86
0.261694 0.270515 0.71994 0.32189 -0.638004 -0.699526 219 236 227
0.278051 0.262836 0.251421 0.706914 0.469669 -0.528852 124 203 178
0.028618 0.536024 0.816918 0.991461 0.0583815 -0.116606 63 44 51
0.894125 0.540179 0.260223 0.952547 0.242298 0.184247 114 205 29
0.0255058 0.425666 0.151124 0.998175 -0.0602245 -0.00445142 91 99 229
0.71077 0.0158703 0.393819 0.11739 0.992845 -0.0218487 51 149 254
0.711621 0.376032 0.236677 -0.2556 0.471639 -0.843934 15 59 53
0.709027 0.419689 0.886611 -0.18551 -0.380252 0.906087 107 222 5
0.928589 0.0123615 0.728143 -0.21283 0.977086 -0.00263041 227 55 182
0.303963 0.927576 0.355071 -0.10122 0.986316 0.130138 6 223 124
0.678812 0.978969 0.812333 -0.16701 0.954504 0.247041 181 126 17
0.33359 0.975265 0.154615 0.288669 0.956405 -0.0442787 203 37 77
0.433892 0.263086 0.695032 -0.197 -0.752214 0.62878 142 9 18
0.756339 0.850348 0.757239 0.876922 0.370556 0.306098 204 132 61
0.694452 0.223604 0.398514 -0.46482 0.848879 -0.251686 121 81 247
0.623644 0.136289 0.761782 0.871246 0.461201 0.168001 71 53 57
0.784448 0.256936 0.837765 -0.310782 0.543384 -0.779839 57 148 86
0.740092 0.677371 0.641095 0.714258 -0.527906 0.459512 141 174 127
0.946247 0.217754 0.449008 0.923942 -0.0949272 0.370566 240 215 219
0.121319 0.249587 0.34133 0.1538 -0.553267 -0.818683 132 235 87
0.494332 0.357444 0.98939 -0.115257 0.0706118 0.990823 68 45 245
0.597722 0.232996 0.681355 0.053136 0.500519 -0.864093 73 51 95
0.000995746 0.557592 0.537339 0.937154 -0.348751 0.0107334 17 209 50
0.244517 0.571286 0.90565 0.209022 0.562188 0.800159 46 230 46
0.587428 0.512339 0.637745 0.875001 0.0254425 0.483452 31 68 160
0.47282 0.713701 0.52866 0.758689 -0.603208 -0.246031 239 211 93
0.00324719 0.147531 0.328597 0.981057 0.165837 -0.100126 114 9 244
0.144503 0.289405 0.544193 0.525606 -0.814024 -0.247191 243 179 167
0.53849 0.570619 0.577041 -0.341458 -0.695758 -0.631923 236 232 145
0.77937 0.434077 0.563233 0.876807 0.301172 -0.37484 181 204 26
0.924968 0.0852644 0.978334 0.515854 0.0202345 0.856437 241 148 121
0.397411 0.494372 0.824516 0.914119 -0.0932737 -0.394572 242 196 122
0.280291 0.79427 0.46261 0.113371 0.810421 -0.574774 249 208 139
0.0211592 0.321965 0.302148 0.988368 0.0459738 0.144968 162 168 194
0.681967 0.934791 0.306606 -0.244037 -0.94368 -0.223413 185 95 21
0.053426 0.0368986 0.0755762 0.254632 -0.428673 0.866835 217 153 111
0.999897 0.744057 0.966118 -0.0727934 0.0501294 -0.996086 255 90 195
0.390311 0.702355 0.414103 -0.188867 -0.943568 0.272044 173 119 233
0.539916 0.673005 0.663516 0.719014 0.626036 0.301825 45 138 89
0.651273 0.547365 0.0643545 -0.0102908 0.0151873 0.999832 47 185 175
0.381765 0.421052 0.0578408 -0.164204 -0.139561 0.976504 248 202 209
0.149175 0.575023 0.500065 0.379859 0.583172 -0.718065 41 123 35
0.353986 0.780041 0.773172 0.207946 -0.878733 0.429635 195 62 146
0.874156 0.49834 0.419394 0.871154 0.0864956 0.483331 143 149 17
0.981343 0.666361 0.649874 0.920578 0.378038 -0.0980966 122 117 62
0.419775 0.584165 0.0754311 -0.388025 -0.0774552 0.918388 86 227 171
0.429117 0.159868 0.614461 0.254501 -0.479534 -0.839808 0 191 71
0.448126 0.778872 0.414313 0.325912 -0.929843 -0.170802 3 69 216
0.975418 0.345546 0.428021 0.904009 0.220374 0.366337 227 193 218
0.786568 0.76278 0.94686 -0.211646 -0.104191 0.971777 156 74 191
0.732565 0.19689 0.961359 0.0331393 -0.0154884 -0.999331 166 243 102
0.854631 0.0763476 0.617684 -0.275655 -0.953744 0.119947 213 255 174
0.495329 0.293329 0.817696 0.821868 0.0320646 0.568775 101 153 28
0.321677 0.265072 0.675618 -0.35101 -0.74143 -0.571903 116 129 121
0.61445 0.820942 0.500032 0.715745 -0.696487 -0.0511344 141 174 42
0.590692 0.338798 0.327105 0.233739 -0.621928 -0.747377 133 154 230
0.461874 0.125957 0.199143 -0.236659 -0.968305 0.0798649 119 20 204
0.427228 0.167452 0.867791 0.201911 0.390633 -0.89813 149 54 204
0.63967 0.432175 0.462258 -0.59045 0.720071 0.364507 191 170 21
0.293264 0.35023 0.068782 0.325867 -0.168277 0.930319 12 24 166
0.745276 0.45821 0.410396 -0.349775 0.901069 0.256384 61 162 167
0.373511 0.624764 0.189502 0.207714 0.566203 -0.797665 199 122 165
0.997563 0.0517363 0.323668 0.474871 -0.873063 0.110717 36 48 39
0.957641 0.629387 0.855269 0.990144 0.110837 0.0856191 208 176 45
0.611718 0.409012 0.940356 -0.0153958 -0.181752 0.983224 142 63 203
0.240759 0.530606 0.0979102 0.0811308 0.043916 0.995736 112 130 61
0.980807 0.0807476 0.501563 0.974874 -0.151493 0.163311 241 254 6
0.61003 0.159877 0.639439 0.206164 0.959269 -0.193129 166 176 136
0.338119 0.11137 0.382085 -0.164611 0.962947 0.213625 246 21 35
0.78468 0.0597209 0.288451 -0.18992 0.979635 0.0651559 79 39 225
0.413643 0.734282 0.534604 -0.264796 -0.936573 -0.229597 125 100 91
0.280093 0.321118 0.996077 -0.0100862 0.0353628 -0.999324 74 8 47
0.24917 0.812063 0.23106 0.0316604 0.189119 -0.981444 49 19 103
0.16818 0.828127 0.339845 0.687059 0.726483 -0.0131578 146 113 169
0.276868 0.0816085 0.152298 0.219039 0.909202 0.354081 114 151 32
0.554655 0.869967 0.741222 -0.583826 0.762825 0.27793 144 44 79
0.894041 0.262367 0.0648543 -0.110534 0.103956 -0.988421 101 197 29
0.866817 0.459414 0.468427 -0.58769 -0.432446 -0.683821 93 242 98
0.284812 0.706013 0.116242 -0.107964 -0.794955 0.596985 26 147 199
0.740637 0.363484 0.161962 -0.0585278 0.642862 -0.763743 175 101 26
0.918237 0.12398 0.626778 0.958817 0.282928 0.024945 188 154 55
0.752679 0.485689 0.267317 0.925745 -0.351177 0.140249 110 131 107
0.361019 0.886961 0.588922 0.294617 0.673328 -0.678108 177 1 128
0.971645 0.882144 0.977614 0.347769 0.152199 0.925145 147 248 230
0.742945 0.234017 0.65035 -0.626746 0.226918 -0.745451 230 133 231
0.584704 0.520021 0.960363 0.198676 -0.189424 -0.961585 37 111 69
0.0788941 0.675546 0.0902146 -0.0379241 -0.00497705 -0.999268 250 86 154
0.854799 0.8097 0.555383 0.78075 0.622809 -0.0503849 159 190 35
0.244576 0.764762 0.208669 0.322344 0.023768 -0.946324 145 19 79
0.377592 0.765343 0.988093 0.111562 -0.0345904 0.993155 249 202 226
0.901446 0.793681 0.832562 -0.696007 0.0358914 0.717138 132 217 58
0.0523002 0.824687 0.589629 0.973413 -0.223836 0.0486191 148 176 75
0.633726 0.142269 0.677766 0.377615 0.92032 -0.102064 135 198 198
0.948954 0.348346 0.228021 0.982864 -0.145541 -0.113118 229 197 25
0.031615 0.896411 0.575287 0.926417 -0.338345 -0.165149 151 43 163
0.248017 0.0053832 0.876065 0.295767 -0.896237 0.330577 243 11 125
0.481384 0.718425 0.589086 0.889528 -0.412605 0.196208 235 39 240
0.872082 0.456916 0.710758 0.930142 -0.163334 -0.328873 59 105 234
0.644975 0.403332 0.042518 -0.12674 -0.0804824 0.988665 196 210 231
0.720316 0.668771 0.0150956 0.188044 -0.0615554 -0.98023 126 162 17
0.243581 0.286866 0.772033 -0.732932 0.22207 -0.643036 159 39 244
0.700861 0.854354 0.259567 -0.472811 -0.877858 0.0762529 236 143 79
0.0831263 0.0239417 0.044467 -0.0397011 -0.194563 0.980086 94 252 246
0.132812 0.858958 0.496045 0.744406 0.533714 -0.401259 195 94 3
0.771133 0.240383 0.905658 0.351829 0.0286969 0.935624 204 248 180
0.559158 0.939348 0.240448 0.170007 -0.977757 -0.122836 181 197 87
0.814725 0.607047 0.118715 0.131206 0.709941 -0.691931 192 59 249
0.808349 0.843448 0.369374 0.74508 0.614621 -0.25903 176 42 146
0.569383 0.269425 0.75436 0.868126 0.455328 -0.197569 36 56 79
0.862305 0.355468 0.0995052 0.299176 0.0738646 0.951335 79 58 171
0.205941 0.791925 0.422122 0.678816 0.734234 -0.0103997 60 169 131
0.223428 0.914653 0.644276 0.143077 0.989123 -0.0341416 250 50 232
0.58676 0.222215 0.920775 -0.0985953 0.889344 -0.446482 122 123 91
0.631262 0.342028 0.694815 0.690601 -0.276829 0.668159 57 50 119
0.223576 0.860423 0.638219 0.703924 -0.53154 -0.471123 243 203 3
0.982679 0.218693 0.0915307 0.857896 0.101436 -0.503711 246 123 197
0.889263 0.0451544 0.235911 0.252489 -0.967515 -0.012815 181 62 196
0.999148 0.244463 0.898697 0.959671 0.0311138 0.279398 106 16 14
0.00865219 0.0365538 0.735207 0.830965 0.541546 0.127378 65 195 47
0.137658 0.881811 0.103376 -0.281302 0.379734 -0.881289 100 8 126
0.0675426 0.274453 0.279191 0.97568 0.123394 0.18117 116 254 128
0.96965 0.136271 0.304254 0.992449 0.100477 0.0703478 182 216 239
0.0717256 0.127725 0.679543 0.890297 0.384569 -0.243881 41 52 38
0.220874 0.724545 0.819906 -0.207005 0.975802 -0.070422 177 220 79
0.988184 0.743358 0.785725 0.919352 0.0218794 -0.392826 155 161 176
0.164048 0.105012 0.385686 -0.512459 -0.850275 -0.120075 12 126 103
0.107115 0.104668 0.759219 0.525513 0.613947 -0.588986 35 116 10
0.729765 0.804134 0.729648 0.697111 0.716963 5.98269e-05 79 233 103
0.979889 0.204302 0.0456265 0.678866 0.105889 -0.726587 119 130 145
0.0617116 0.235923 0.716842 0.929133 0.293188 0.225285 59 127 155
0.238323 0.675507 0.663308 -0.401179 -0.914846 -0.0459528 77 157 141
0.244833 0.621033 0.598829 0.453489 0.887221 -0.0847721 156 245 154
0.979993 0.666338 0.317584 0.980112 -0.192398 -0.0486089 236 224 16
0.173034 0.0293206 0.401724 -0.271671 -0.954912 -0.119742 240 34 111
0.799072 0.194746 0.269452 0.481969 -0.633598 0.605194 242 202 87
0.730201 0.573659 0.396016 0.556783 -0.297417 -0.775587 57 245 23
0.919262 0.290956 0.440581 0.880877 0.0878301 0.465125 70 218 127
0.554494 0.695018 0.509104 0.747349 0.603866 0.277157 205 65 239
0.114461 0.34754 0.882631 0.980894 -0.156886 -0.115041 99 193 70
0.0638772 0.602191 0.811133 0.828833 -0.427319 -0.361158 51 129 109
0.247189 0.219199 0.475179 -0.128672 -0.296312 0.946384 100 77 160
0.702064 0.348969 0.185163 0.483994 0.66408 -0.569866 174 179 13
0.322361 0.668518 0.49087 -0.0778907 -0.330297 -0.940658 67 116 189
0.116105 0.33003 0.526583 0.851053 -0.495525 -0.173677 91 16 105
0.706683 0.439295 0.41048 0.235597 0.963197 -0.129407 37 58 8
0.82521 0.619839 0.645051 -0.349449 -0.574531 0.740135 24 135 107
0.854965 0.725184 0.633571 0.882974 0.397288 0.25004 106 198 30
0.665529 0.335552 0.20917 0.963989 0.249926 -0.0908931 151 104 249
0.482602 0.76257 0.695465 0.765472 -0.642995 0.0247081 145 102 0
0.339384 0.181309 0.0688882 0.228994 0.130483 0.964643 69 175 179
0.485532 0.519526 0.825277 0.831998 0.331865 -0.444572 245 248 215
0.825576 0.451079 0.709758 0.790359 0.123479 -0.600071 44 243 158
0.0200888 0.744704 0.244767 0.997604 0.0683493 -0.0106842 250 51 9
0.101297 0.373098 0.255865 0.943616 -0.31506 -0.101619 191 51 54
0.000116285 0.912347 0.272217 0.9696 -0.244691 -0.00121114 120 214 45
0.464753 0.442394 0.66118 0.103747 0.736173 -0.668794 121 194 140
0.0819612 0.436205 0.144615 0.935926 -0.295192 -0.192104 208 140 86
0.147589 0.761913 0.12439 -0.185861 0.164561 0.968698 159 167 53
0.449357 0.405797 0.82469 0.849504 0.232464 0.473608 17 89 229
0.322673 0.758947 0.242533 0.083465 0.712355 -0.696839 59 228 140
0.54744 0.0965987 0.0859531 -0.0203097 0.884115 0.466829 55 92 63
0.840447 0.617861 0.0195115 -0.328241 -0.0667425 0.942233 210 169 227
0.91686 0.119295 0.947416 0.515854 0.0202345 0.856437 164 235 201
0.892722 0.888048 0.729315 0.940226 -0.253026 -0.227933 37 162 22
0.90811 0.976806 0.353959 -0.267856 -0.923696 0.273932 100 108 89
0.350019 0.801827 0.206357 -0.485499 -0.288873 0.825132 85 102 209
0.266554 0.0596677 0.320917 0.128506 -0.964938 -0.228869 159 253 155
0.279649 0.649089 0.178401 -0.00698068 0.666177 -0.745761 43 252 100
0.532597 0.269164 0.461528 -0.244863 -0.945828 -0.213196 242 30 174
0.603022 0.0258652 0.49313 -0.16833 -0.940929 0.293798 243 131 12
0.351366 0.175225 0.80812 0.179871 -0.156473 -0.971166 208 138 180
0.0709809 0.24158 0.00872029 -0.10254 0.130759 -0.986097 46 50 113
0.525788 0.784113 0.0269986 0.136016 -0.116752 -0.983803 207 187 208
0.663842 0.733313 0.202299 -0.569516 0.777677 -0.266216 166 2 4
0.985804 0.0888852 0.115822 0.769568 -0.483892 -0.416668 184 102 82
0.537634 0.191771 0.612567 -0.366972 -0.915242 0.166322 117 106 35
0.244074 0.876819 0.929578 0.0909194 0.423724 -0.901217 130 174 62
0.437564 0.560387 0.375444 -0.0674988 -0.993684 -0.0896429 255 42 9
0.158614 0.32568 0.586543 0.396451 -0.907911 0.136102 187 78 168
0.952763 0.880611 0.0461653 0.446526 0.471979 -0.760165 6 130 33
0.246905 0.0422721 0.716763 -0.183295 -0.970676 0.155536 61 222 130
0.184167 0.722449 0.824484 0.35095 -0.808518 0.47237 198 153 240
0.0799438 0.063743 0.839328 0.697893 0.714603 0.0478321 245 114 191
0.869516 0.151582 0.442789 0.989821 -0.135943 -0.0421301 27 248 20
0.690845 0.270223 0.662831 -0.505081 0.265622 -0.821181 69 212 212
0.197977 0.346761 0.461121 -0.297085 0.821153 0.487286 54 203 213
0.327502 0.561694 0.520449 0.789518 -0.427814 0.440041 164 253 122
0.895388 0.448717 0.925772 0.67694 0.00842369 0.73599 23 75 113
0.400245 0.698955 0.752283 0.542575 -0.762609 0.352193 25 138 205
0.262291 0.088102 0.54096 0.263767 0.931365 0.250972 252 1 92
0.415063 0.707265 0.25539 0.558878 0.487314 -0.670954 53 110 86
0.600248 0.121782 0.198238 -0.268053 -0.960881 -0.0696771 13 64 223
0.786976 0.778679 0.272415 -0.279294 -0.608735 -0.742587 60 45 27
0.797354 0.760541 0.664113 0.954712 -0.263733 -0.137733 47 153 110
0.806683 0.916161 0.433558 -0.0163109 -0.964515 -0.263523 76 214 10
0.354927 0.371857 0.025085 0.0853211 -0.0120659 0.99628 156 158 100
0.161403 0.00394525 0.0964497 0.188535 -0.564656 -0.803504 172 158 59
0.863348 0.104758 0.302642 -0.564227 0.78255 0.26318 181 52 4
0.581811 0.911677 0.346573 -0.365568 0.913766 -0.177177 49 74 188
0.960325 0.334811 0.457986 0.874711 0.148428 0.461357 148 109 242
0.323459 0.304668 0.537377 0.636747 0.76143 0.121563 79 226 113
0.143109 0.614687 0.126988 -0.000519425 -0.107904 -0.994161 79 234 107
0.295924 0.985876 0.169533 0.41351 0.890027 0.191992 121 203 113
0.444555 0.414072 0.920118 0.605116 -0.614872 0.505735 197 80 95
0.138726 0.457338 0.449611 0.937227 0.216137 -0.273661 124 34 84
0.0099894 0.0508956 0.613526 0.872217 0.48863 -0.0218888 12 208 148
0.354243 0.147595 0.570005 -0.539105 -0.238351 0.807808 219 134 75
0.0594892 0.644275 0.190359 0.987562 -0.156836 -0.011122 56 164 122
0.129415 0.67939 0.113841 0.257217 -0.0527653 0.964912 50 36 185
0.570056 0.852146 0.0134882 -0.00184786 -0.235669 0.971832 243 182 247
0.0838833 0.99431 0.43303 0.214348 0.976715 -0.00910171 219 212 221
0.0115507 0.62253 0.896987 0.812967 -0.206827 -0.544341 177 72 145
0.974617 0.549855 0.572096 0.970457 -0.185516 -0.154264 167 89 13
0.392229 0.427135 0.0875341 -0.300354 -0.119666 0.946292 16 145 189
0.350803 0.417427 0.9222 -0.167035 -0.0720591 -0.983314 222 15 226
0.754926 0.0984717 0.269715 -0.606949 0.46994 -0.640913 241 135 157
0.516259 0.178695 0.624748 -0.00136179 0.901036 -0.433742 210 130 104
0.642544 0.72923 0.0803318 -0.0305323 0.21109 0.97699 244 25 16
0.578335 0.23556 0.556579 0.338418 -0.918425 0.204864 43 202 170
0.353821 0.437075 0.134665 0.918506 0.0302116 0.39425 206 146 106
0.958276 0.920113 0.394181 0.906084 0.42246 -0.0232306 85 183 25
0.115291 0.263373 0.229715 0.770344 0.478039 0.421959 194 15 92
0.715494 0.742459 0.901316 0.167518 0.0677505 0.983538 171 103 245
0.872116 0.563692 0.506334 0.799637 -0.563376 -0.207816 18 55 175
0.796504 0.389817 0.930763 -0.336217 0.0868379 -0.937773 107 139 212
0.816559 0.985973 0.674773 -0.218584 -0.939562 0.263523 217 161 193
0.694928 0.0634561 0.211844 0.0709146 -0.972253 -0.222923 137 49 209
0.755873 0.683189 0.302813 -0.545207 0.37496 0.74977 228 242 145
0.75383 0.680653 0.886614 0.259668 0.140223 0.955463 165 186 82
0.551693 0.138977 0.940955 -0.151561 -0.453193 0.878433 124 39 78
0.314394 0.271652 0.897519 -0.0144367 -0.401002 0.915964 251 23 107
0.950867 0.328732 0.841582 0.939938 0.0739938 0.333228 177 121 117
0.934573 0.383701 0.124112 0.910798 -0.000569786 -0.412852 83 38 193
0.887687 0.801032 0.184473 0.967185 0.249322 -0.0489043 211 223 216
0.2307 0.901833 0.0933988 -0.294275 -0.0829155 0.952117 202 154 85
0.476881 0.0805761 0.0307107 0.144235 -0.391467 -0.908818 18 102 140
0.52445 0.442107 0.805138 0.843974 0.487444 0.223845 213 15 189
0.272597 0.319632 0.364896 0.485469 0.872668 0.052624 124 12 14
0.71809 0.423461 0.530716 -0.486699 -0.625548 -0.609765 47 121 244
0.866114 0.992084 0.57976 0.297296 -0.933394 -0.200975 108 78 187
0.31222 0.998598 0.102867 0.165911 0.984986 -0.0477075 72 204 86
0.652314 0.671395 0.266605 -0.513278 0.422405 0.747074 239 154 17
0.999455 0.368148 0.280557 0.997404 0.0693947 -0.0192195 219 177 53
0.584559 0.354592 0.0652345 0.353514 0.291603 -0.888817 108 229 129
0.966617 0.70889 0.364988 0.996162 0.0543254 -0.068629 150 170 66
0.644162 0.98049 0.591026 -0.121458 0.981367 -0.148888 74 200 12
0.769519 0.722984 0.875974 0.291888 0.129834 0.947599 252 246 246
0.791005 0.244318 0.621 0.711323 0.0416986 0.701628 247 253 212
0.166679 0.777068 0.525716 -0.346232 -0.127149 -0.929493 213 40 224
0.189677 0.215332 0.125724 0.242318 -0.0582445 -0.968447 219 11 192
0.481392 0.291524 0.101744 -0.315476 -0.0247309 0.948611 184 146 62
0.416426 0.963191 0.503704 0.27139 -0.912476 -0.306162 106 117 185
0.33597 0.769288 0.699559 -0.665928 -0.594776 -0.450312 96 19 235
0.776873 0.506821 0.51546 0.991098 -0.111428 0.0728552 194 152 128
0.0817403 0.430626 0.153656 0.935926 -0.295192 -0.192104 249 127 97
0.00107187 0.0557783 0.118792 0.98664 0.0935573 0.133376 251 52 186
0.802198 0.754065 0.197032 -0.246392 0.658146 -0.711432 244 246 229
0.111578 0.185042 0.437347 0.858161 0.108255 -0.501837 232 221 39
0.55351 0.188541 0.369971 0.0958477 0.762058 -0.640375 71 20 186
0.904313 0.417064 0.947915 0.646332 -0.00452063 0.763043 50 114 171
0.703759 0.646961 0.664833 -0.132317 0.550404 -0.824347 103 214 214
0.967148 0.592186 0.590637 0.904475 -0.322485 -0.279157 199 113 119
0.520901 0.622791 0.885145 0.795917 0.140699 -0.58883 51 153 102
0.888635 0.342935 0.546858 0.836193 0.298836 0.459867 88 23 233
0.994362 0.687733 0.519379 0.990916 -0.0875068 0.10212 83 69 58
0.820628 0.56792 0.57328 -0.636805 0.506287 -0.58151 109 178 103
0.101123 0.944189 0.234458 0.30805 -0.942741 -0.127846 105 145 115
0.201984 0.260033 0.489392 0.548668 0.190754 -0.813988 183 10 184
0.902895 0.390362 0.375023 0.754014 0.597149 0.273632 131 135 56
0.774267 0.210074 0.73528 -0.208238 -0.78095 0.588858 53 200 140
0.476197 0.139877 0.29465 0.18621 0.979857 -0.072159 99 40 156
0.60989 0.0200884 0.196427 -0.116869 -0.986198 0.117279 133 79 61
0.28479 0.810273 0.947824 -0.297592 -0.177571 0.938034 124 17 66
0.785621 0.120889 0.641817 -0.109475 -0.929164 -0.353086 203 7 7
0.410709 0.0158195 0.689802 0.330252 -0.936864 -0.114978 25 94 47
0.5904 0.135873 0.735748 -0.489004 -0.684122 -0.541158 207 214 131
0.62813 0.468261 0.0941042 -0.38288 0.104694 0.917847 147 144 73
0.588608 0.38629 0.746462 0.8855 0.364863 0.287689 94 250 212
0.202214 0.813782 0.459668 0.965783 0.258474 -0.0213094 197 83 75
0.306646 0.484819 0.212807 0.79711 -0.209722 0.566244 215 224 151
0.622135 0.56301 0.447595 -0.645117 -0.764083 0.000997141 90 251 218
0.0839218 0.886846 0.100732 0.520645 -0.431606 0.736644 107 79 27
0.18002 0.746783 0.817088 -0.527446 0.709393 -0.467506 230 120 99
0.0364396 0.470193 0.264609 0.976868 -0.0382843 0.210386 166 195 12
0.758062 0.522748 0.516335 -0.21457 -0.770609 0.600102 41 146 1
0.453774 0.786075 0.854046 -0.258963 -0.927933 -0.268103 127 136 128
0.389758 0.680064 0.778917 -0.0776227 -0.658257 0.748781 195 16 10
0.936471 0.356092 0.232249 0.996747 0.0805529 -0.00252017 66 128 83
0.515123 0.557909 0.133487 -0.114741 0.125066 0.985491 158 254 239
0.306773 0.617636 0.26951 0.0628742 -0.777198 -0.626107 99 110 78
0.465785 0.739592 0.501753 0.779379 -0.530263 -0.333751 117 217 23
0.783864 0.276625 0.998065 0.104677 0.139191 0.984718 74 141 253
0.910812 0.314492 0.525155 0.818466 0.330188 0.470201 74 173 11
0.066757 0.0856392 0.106831 0.254632 -0.428673 0.866835 161 7 79
0.588013 0.407704 0.304062 0.423125 0.340845 -0.839518 110 235 179
0.675394 0.229006 0.90808 0.163948 0.251802 -0.953791 8 210 166
0.572737 0.665748 0.332548 -0.504216 -0.828843 -0.242458 154 213 102
0.756888 0.355464 0.312947 0.791634 0.540573 -0.284773 70 126 113
0.944346 0.104719 0.842097 0.904649 -0.419422 -0.0754706 133 76 191
0.674174 0.956439 0.219214 -0.176616 -0.983217 -0.0457285 0 153 35
0.50916 0.178117 0.715651 0.0256131 0.998392 -0.050578 230 144 42
0.610972 0.589292 0.641628 -0.101001 -0.639548 -0.762088 41 32 197
0.217014 0.435771 0.723754 -0.587078 -0.107214 0.802399 159 115 253
0.60077 0.877051 0.386904 0.204998 -0.952577 -0.224883 87 212 145
0.711802 0.984041 0.170736 -0.242654 -0.96753 0.0707465 196 110 248
0.989032 0.184732 0.428481 0.980409 -0.02476 0.195412 220 8 240
0.0223427 0.587426 0.788691 0.979704 -0.164398 -0.11469 148 1 232
0.531453 0.8828 0.66053 0.649826 -0.731715 0.205716 177 123 46
0.504277 0.577913 0.246948 0.526854 -0.520164 -0.672201 88 65 189
0.700715 0.254619 0.559786 0.491984 -0.825279 0.277247 12 46 20
0.872648 0.131403 0.11147 -0.366588 -0.266487 -0.891402 72 171 183
0.0954635 0.760261 0.0776642 0.0943556 -0.0932396 0.991163 139 131 58
0.100106 0.567695 0.0307661 0.3266 -0.114977 0.938143 27 191 181
0.466914 0.0703274 0.49632 0.0906348 -0.970164 0.22487 162 2 139
0.964651 0.489876 0.710183 0.926932 -0.286498 -0.242312 107 20 113
0.805956 0.027399 0.948508 0.061294 0.675531 -0.73478 248 11 37
0.305201 0.734244 0.245159 -0.289682 -0.378896 0.878932 186 68 36
0.64152 0.9592 0.131208 -0.214618 -0.922864 0.319784 93 192 1
0.615562 0.625655 0.348346 0.0350213 0.824683 0.56451 71 136 106
0.0871454 0.844483 0.486857 0.940093 0.288356 -0.181869 70 219 93
0.242572 0.113146 0.230971 -0.0309118 -0.960839 -0.275376 54 100 75
0.199579 0.0273268 0.488259 -0.296089 -0.95351 -0.0561217 56 177 225
0.5449 0.374957 0.0441377 -0.233891 -0.306142 0.922806 121 133 39
0.813704 0.554454 0.554153 0.38699 -0.668669 0.634918 112 105 111
0.368585 0.300748 0.0292507 0.0594362 -0.0247568 0.997925 170 60 91
0.621693 0.256816 0.178155 0.432953 -0.48866 -0.757472 221 156 43
0.346923 0.615092 0.790718 0.644991 0.36129 -0.673392 164 75 250
0.374867 0.150151 0.0846019 -0.188203 -0.0441025 -0.981139 200 39 42
0.159303 0.966728 0.0544385 -0.52566 0.82939 -0.189192 18 231 71
0.348536 0.612832 0.609782 -0.554007 0.793082 -0.253174 155 247 240
0.595909 0.606348 0.0902971 -0.178854 -0.267812 -0.946725 179 61 87
0.315122 0.0567092 0.538329 0.303867 -0.945942 -0.113393 28 133 54
0.224819 0.947713 0.656369 -0.0646612 0.997828 0.0125607 250 82 76
0.363246 0.73403 0.275022 0.537205 0.290015 -0.792024 114 202 170
0.809968 0.717901 0.493848 0.902617 0.0609436 0.426108 252 163 217
0.344426 0.533227 0.00179155 -0.205964 0.089421 -0.974465 111 56 13
0.138399 0.409456 0.153262 0.432687 -0.260728 0.86302 122 219 25
0.277054 0.261828 0.985619 -0.0449249 0.383492 -0.922451 8 246 47
0.74837 0.527355 0.648186 0.0417043 -0.485071 0.87348 209 236 223
0.212615 0.751121 0.21595 -0.183225 -0.854797 0.485542 59 121 173
0.614271 0.260035 0.724988 -0.275497 -0.422087 0.86368 142 39 97
0.695947 0.440259 0.312901 0.736719 -0.628063 0.250565 196 186 41
0.109257 0.441786 0.36708 0.84549 0.105514 -0.523462 255 9 21
0.483143 0.921248 0.724796 0.491134 -0.816219 -0.304261 66 92 180
0.972552 0.77522 0.972229 -0.137272 0.220154 -0.965758 189 118 238
0.712786 0.907965 0.376348 -0.159404 -0.986321 -0.041973 193 70 11
0.187517 0.38579 0.453446 0.725159 -0.293709 -0.6228 39 158 144
0.480398 0.191498 0.615068 -0.113206 0.961311 -0.25113 202 242 160
0.468391 0.412636 0.115406 -0.0401392 -0.540101 0.840642 71 66 38
0.796161 0.881133 0.403301 0.206189 0.9729 0.104648 71 11 246
0.0164167 0.603421 0.612293 0.904368 -0.377333 0.199345 95 224 198
0.0811766 0.468405 0.273896 0.970172 -0.136077 0.200622 2 98 74
0.129445 0.535795 0.274414 0.797722 -0.163672 0.580388 157 32 125
0.289014 0.177767 0.808536 0.515775 0.192909 -0.834723 95 51 236
0.554526 0.660218 0.53511 0.760943 0.636271 -0.126986 5 237 230
0.514394 0.884827 0.114697 -0.250483 0.2955 -0.921921 168 139 236
0.432585 0.770609 0.614851 0.657455 -0.478186 0.582315 237 176 105
0.587392 0.987011 0.576618 0.223447 0.972375 0.0675177 170 244 204
0.924843 0.382042 0.221927 0.991221 0.117705 -0.0602242 68 139 87
0.075962 0.732235 0.718755 0.825973 -0.562997 -0.0283336 97 249 140
0.24643 0.0318635 0.712563 -0.0763659 -0.996595 0.0310849 124 115 249
0.436941 0.755738 0.855246 -0.326643 -0.857839 0.396757 123 177 18
0.71774 0.760384 0.523698 -0.388956 0.594757 0.703547 78 8 76
0.243998 0.693334 0.731621 -0.14394 -0.741557 0.655267 156 190 160
0.363866 0.309279 0.930485 0.280833 0.124057 0.951705 135 40 158
0.647516 0.843749 0.252932 -0.585766 -0.80933 -0.0431669 15 140 65
0.700575 0.140098 0.966151 0.12065 0.459071 -0.880169 106 101 123
0.942785 0.151927 0.817733 0.968102 -0.173332 -0.180927 232 54 129
0.0885639 0.885011 0.0823715 0.520645 -0.431606 0.736644 127 169 21
0.311895 0.585557 0.901184 -0.336406 -0.519525 -0.785446 177 215 103
0.308507 0.592665 0.0398646 0.0282387 -0.259294 0.965386 176 171 55
0.111718 0.66227 0.65009 0.527215 -0.83543 0.155246 244 119 224
0.887922 0.956764 0.866014 -0.19719 -0.934624 -0.295963 90 191 157
0.740166 0.543702 0.51235 -0.280234 -0.731597 0.621477 71 227 189
0.136122 0.48941 0.63494 0.958408 0.277237 -0.0677723 236 161 131
0.258365 0.840133 0.496245 -0.214531 -0.809145 0.547047 79 180 87
0.000541492 0.0976054 0.389003 0.923629 0.330407 0.19427 127 7 121
0.350631 0.105091 0.277041 0.000395001 -0.987127 -0.159938 182 71 252
0.710006 0.976796 0.527263 -0.0669878 -0.995775 -0.0628113 206 48 193
0.984129 0.465042 0.190411 0.992829 0.0363609 0.113877 46 204 234
0.434669 0.573345 0.957299 -0.0727083 -0.0317037 0.996849 172 97 108
0.637328 0.197686 0.439128 -0.32473 0.900968 -0.287762 20 248 163
0.440437 0.732148 0.422866 -0.429976 -0.901738 -0.0446081 104 189 197
0.26871 0.804606 0.0231298 -0.0408077 0.0599125 -0.997369 167 185 86
0.671746 0.224137 0.527783 0.331916 -0.943278 -0.00770242 232 198 98
0.167238 0.679114 0.660627 0.969287 0.0226537 -0.244886 233 181 109
0.745028 0.482169 0.384096 0.163092 -0.986528 0.0127951 184 107 204
0.0739822 0.420834 0.879093 0.895473 0.0870797 -0.436516 187 5 25
0.767524 0.40407 0.659786 0.924128 0.351734 0.149233 22 181 53
0.176287 0.685606 0.980703 -0.262301 0.0906288 0.960721 45 79 191
0.185725 0.309917 0.878972 0.148098 0.951249 -0.270541 235 15 115
0.702628 0.656712 0.0715277 0.137286 -0.178232 0.974364 108 47 86
0.26333 0.0631662 0.80748 0.121721 -0.918845 0.375378 99 84 238
0.770652 0.737178 0.715855 0.977054 -0.212365 0.0163505 131 1 58
0.270661 0.981512 0.995733 0.0199496 0.649172 -0.76038 224 153 36
0.81532 0.394684 0.817635 0.618309 -0.685807 0.38388 184 102 31
0.674392 0.540537 0.343087 0.753314 0.451146 0.478524 35 61 6
0.628715 0.902872 0.0508738 -0.327546 -0.478753 0.81456 67 52 215
0.801338 0.0484104 0.862665 0.13417 0.950205 -0.281262 138 50 210
0.439037 0.911152 0.466867 -0.0754396 0.922929 0.377505 79 224 133
0.433984 0.936057 0.989477 -0.025397 -0.699351 -0.714327 166 109 98
0.226693 0.878276 0.626376 0.591401 -0.449466 -0.669496 225 51 148
0.16505 0.113761 0.206175 0.816863 -0.151296 -0.556636 216 162 31
0.653685 0.859348 0.868504 0.159512 -0.25725 -0.953089 187 7 143
0.47186 0.63129 0.629025 0.367568 0.59229 0.716998 99 245 137
0.919042 0.684444 0.204893 0.978853 0.147156 -0.142097 161 32 206
0.605199 0.0947342 0.314216 -0.123061 -0.901232 0.415497 2 32 15
0.786683 0.0324972 0.453947 0.0429189 -0.995982 -0.0785993 176 63 98
0.171999 0.699519 0.621288 0.13893 0.886795 -0.440786 255 202 83
0.920461 0.762667 0.881034 -0.0587444 0.341304 -0.938115 142 101 71
0.622217 0.269587 0.709135 -0.494039 -0.386808 0.778656 111 114 105
0.22047 0.964382 0.162627 0.525717 -0.445235 -0.724837 198 139 29
0.594962 0.799282 0.330235 -0.491759 0.303557 -0.816104 251 39 77
0.534639 0.265747 0.503477 -0.388835 -0.918029 -0.077655 250 168 211
0.187846 0.175217 0.569068 -0.276799 0.199089 -0.940077 249 244 53
0.562087 0.635509 0.0758954 -0.0276173 -0.472705 -0.880788 144 131 169
0.87899 0.674682 0.39033 0.894047 0.0617612 -0.443696 81 4 182
0.859897 0.354231 0.518687 0.706552 0.452924 0.543731 254 181 231
0.24885 0.132124 0.0106034 0.0841768 -0.110594 -0.990294 86 100 164
0.542742 0.96059 0.345428 -0.114573 0.966224 -0.230832 63 87 137
0.779583 0.666169 0.779799 0.969294 -0.23346 0.0772416 40 19 253
0.691881 0.871598 0.350525 -0.254784 -0.965252 -0.0580828 227 234 114
0.286832 0.0234617 0.334574 0.092177 -0.987362 -0.12892 108 26 254
0.356313 0.795708 0.269548 0.805698 -0.0296467 -0.591585 186 85 139
0.304643 0.697101 0.112045 0.258846 0.782423 -0.566404 18 192 183
0.418345 0.399204 0.018957 -0.161512 -0.143303 0.976411 232 207 10
0.242841 0.366526 0.081631 0.39174 -0.362212 0.845779 121 42 151
0.284906 0.64321 0.856026 -0.482025 -0.256172 -0.837871 48 121 157
0.643293 0.941887 0.128489 0.359249 0.862734 -0.355853 63 24 226
0.396321 0.380344 0.753384 0.0762969 0.792215 -0.605454 73 242 120
0.743935 0.767988 0.584484 0.94762 0.293434 -0.126149 30 144 220
0.527559 0.834185 0.713022 0.743726 -0.644655 -0.176894 189 238 198
0.566783 0.243954 0.940411 0.282235 -0.408661 -0.867951 54 213 89
0.537047 0.79713 0.859267 -0.517015 0.634232 0.574844 212 224 110
0.426615 0.659784 0.189889 0.397395 0.745749 -0.534729 142 129 15
0.783423 0.149664 0.36326 0.251327 0.54242 -0.801633 63 95 45
0.0423032 0.565419 0.744557 0.999229 -0.0124701 0.0372298 235 245 202
0.255904 0.256761 0.141384 0.434906 -0.136454 0.890077 120 21 46
0.0127934 0.30058 0.490448 0.901622 -0.344224 -0.261892 181 201 139
0.160321 0.671982 0.534941 0.296717 -0.617906 -0.728114 202 81 209
0.344496 0.562999 0.702485 -0.579869 -0.533863 0.61542 125 15 71
0.614302 0.933715 0.330667 -0.0982033 -0.987194 -0.125712 245 15 150
0.208729 0.388446 0.340077 -0.0513455 -0.283445 0.957613 229 78 201
0.773577 0.816231 0.907979 -0.399431 0.103796 -0.910868 82 35 237
0.89127 0.293541 0.0182778 0.281211 0.0297003 -0.959186 184 228 119
0.271121 0.790089 0.971769 -0.244832 -0.0288482 0.969136 225 247 106
0.775499 0.472649 0.0448951 0.227239 0.191136 0.954898 128 34 137
0.554477 0.220123 0.244416 -0.411633 -0.45388 -0.790286 24 236 101
0.0712184 0.0505786 0.877887 0.889681 0.44271 -0.111699 69 14 125
0.828994 0.0816708 0.611248 0.0414277 -0.975962 0.213966 189 98 48
0.824473 0.0466875 0.0461741 0.0963989 -0.3883 -0.916477 64 61 4
0.323233 0.973867 0.564824 -0.118198 0.992761 0.021306 14 130 108
0.757808 0.586776 0.659514 0.504853 0.306241 -0.807057 101 136 85
0.638898 0.168233 0.935982 -0.00237732 -0.479326 0.877634 222 211 57
0.0899809 0.248825 0.954485 -0.56328 0.0126635 0.826169 86 195 203
0.906489 0.0957739 0.8425 0.810968 0.456974 0.365384 73 72 202
0.818475 0.331874 0.56493 -0.461852 -0.630151 -0.624182 129 49 165
0.233385 0.543992 0.980181 0.136836 0.288341 0.9477 17 75 117
0.315291 0.0700878 0.508594 0.246463 -0.953275 0.174711 238 49 19
0.125271 0.60722 0.528005 0.64179 -0.762525 -0.0816198 110 234 159
0.0943656 0.0622922 0.966311 0.347307 0.371517 -0.861018 37 236 229
0.339432 0.806606 0.900017 -0.156884 -0.567692 0.808154 140 198 98
0.338131 0.422611 0.0455464 -0.116787 -0.0989891 -0.988211 159 184 38
0.743953 0.46597 0.314856 0.527937 -0.844669 0.0884168 134 47 212
0.959469 0.147196 0.141467 0.96546 -0.112852 -0.234845 89 156 219
0.700266 0.107362 0.608486 -0.222464 -0.882566 0.414231 93 168 196
0.271399 0.839513 0.808043 0.185041 0.97292 0.138512 239 127 130
0.283883 0.584238 0.288761 0.0078577 0.379191 0.925285 162 88 197
0.222186 0.913774 0.884074 0.533085 -0.804826 -0.260913 71 176 143
0.379037 0.543755 0.641622 0.366129 0.424737 -0.827978 92 194 176
0.888173 0.765197 0.207163 -0.484336 -0.769647 -0.416007 235 185 4
0.514236 0.85902 0.95472 -0.216054 0.514824 -0.829625 19 10 180
0.667796 0.151768 0.0671873 0.179792 -0.382313 -0.906373 146 97 31
0.127008 0.0746892 0.167098 0.545327 -0.795067 0.265494 216 187 38
0.420754 0.795151 0.353737 0.74646 -0.386307 -0.541816 144 105 20
0.453374 0.0106313 0.0695993 -0.0526593 -0.988515 -0.141655 82 4 243
0.130061 0.180483 0.575171 0.95618 0.12093 0.266639 77 34 243
0.20239 0.564013 0.692464 -0.0796254 -0.955659 0.283506 166 167 176
0.16214 0.60592 0.927284 -0.395461 0.339751 0.853334 12 127 63
0.0127101 0.967724 0.302849 0.211147 0.977375 -0.0124951 172 47 39
0.0935405 0.81827 0.238311 0.878205 0.0921379 -0.469326 38 107 209
0.978442 0.657513 0.414409 0.984635 -0.161422 -0.0666077 85 221 212
0.674862 0.209127 0.405131 0.41053 -0.880538 0.236893 75 226 141
0.269433 0.652927 0.694911 -0.241302 -0.886008 0.395933 184 68 62
0.720483 0.568267 0.171539 0.935029 0.354022 -0.0197111 51 142 68
0.989179 0.686087 0.714418 0.929114 0.335267 0.156021 204 46 163
0.691484 0.213709 0.00308668 -0.0376765 -0.104699 0.99379 12 191 30
0.559733 0.877938 0.606158 0.633684 -0.722576 0.276277 100 223 151
0.117955 0.872145 0.532165 0.744406 0.533714 -0.401259 57 72 242
0.951097 0.361276 0.455273 0.843934 0.240337 0.479598 250 237 177
0.767923 0.818029 0.307652 -0.122485 0.698693 -0.704858 90 142 110
0.951318 0.213554 0.250684 0.995072 0.0610977 -0.0780917 145 233 98
0.934995 0.721946 0.52752 0.977117 0.178078 0.116324 229 50 207
0.922482 0.975866 0.283826 0.0512754 0.98172 -0.183294 207 70 250
0.0555232 0.641908 0.540143 0.988796 -0.141576 -0.0473159 158 23 70
0.375223 0.493961 0.0524861 0.298694 0.084318 -0.950617 206 1 26
0.455471 0.938327 0.0720483 0.0717926 0.995389 0.0636162 208 211 227
0.546003 0.324789 0.654931 0.982288 0.049388 0.180752 198 103 215
0.119266 0.811492 0.155319 0.615025 -0.173404 0.769205 228 103 179
0.61504 0.0543041 0.804785 -0.27162 -0.960261 -0.0641929 84 226 187
0.122581 0.0395938 0.576752 -0.252718 -0.95717 -0.141275 28 219 154
0.681777 0.453405 0.227234 0.940101 -0.336779 0.0528244 191 23 149
0.777285 0.679189 0.247996 -0.100251 -0.323722 -0.940826 43 63 64
0.687148 0.311803 0.803153 -0.0834608 0.979713 -0.182202 18 69 96
0.800132 0.689033 0.853138 -0.339858 -0.692508 -0.636341 241 142 51
0.558211 0.49382 0.957821 -0.161872 0.0510708 0.985489 30 159 77
0.740409 0.0128115 0.200985 -0.000999242 -0.998821 0.0485327 1 106 240
0.897922 0.837848 0.149351 0.60931 -0.0445566 0.79168 193 167 108
0.651164 0.621921 0.224864 0.0893791 0.96416 0.249812 5 195 223
0.0811908 0.792707 0.341682 0.965613 0.153887 -0.209547 72 192 115
0.504912 0.00981442 0.869715 -0.11172 -0.79272 0.599261 85 196 242
0.512369 0.073577 0.0485382 -0.247093 0.717512 0.651246 239 238 115
0.13146 0.268527 0.598672 0.657401 -0.740877 -0.137571 38 217 177
0.408019 0.202668 0.301608 0.0775875 -0.159279 0.98418 226 98 220
0.497363 0.983495 0.729545 -0.518474 0.754613 0.402174 116 237 116
0.191643 0.957488 0.584679 0.117363 0.970072 -0.212571 173 123 150
0.617545 0.436285 0.67622 -0.499215 -0.369395 -0.783793 177 120 236
0.284737 0.213471 0.956758 -0.121607 0.387576 -0.913781 168 220 236
0.784565 0.0991151 0.228375 -0.183889 0.694279 0.695817 63 25 138
0.396838 0.187577 0.46162 0.579056 -0.66157 0.476465 117 85 174
0.509585 0.132856 0.318205 0.0240203 0.906908 -0.420643 32 25 89
0.8674 0.444883 0.0576209 0.381264 0.0936962 -0.919706 55 236 245
0.0842749 0.279652 0.041859 -0.295108 0.193895 -0.935583 30 175 59
0.195881 0.191728 0.860451 -0.593453 -0.509324 0.62322 55 173 6
0.59123 0.272591 0.662949 0.677237 -0.251064 0.691605 196 172 57
0.214235 0.982995 0.0610819 0.00178524 0.213891 -0.976856 13 196 78
0.912151 0.434045 0.746114 0.952494 -0.250994 -0.172503 212 179 197
0.133197 0.223596 0.511729 0.881092 -0.0315552 -0.471891 59 142 124
0.25623 0.106166 0.476662 0.13016 0.991144 0.0262959 57 234 105
0.551255 0.987905 0.438122 -0.152071 -0.985798 -0.0712498 50 170 53
0.0544455 0.595909 0.278128 0.996525 -0.0829078 -0.00805422 190 31 194
0.582816 0.529918 0.480267 -0.522936 -0.830818 0.190473 125 44 186
0.700615 0.984611 0.955669 0.0327059 -0.341604 -0.939275 245 105 162
0.225675 0.954773 0.0847828 0.197715 0.0777595 -0.977171 225 75 76
0.866422 0.137464 0.47172 0.92866 -0.194255 0.316001 187 159 232
0.671922 0.959215 0.859756 -0.0855464 0.840291 0.535343 193 10 28
0.468831 0.475512 0.997069 0.253553 0.0157738 -0.967193 229 34 28
0.894161 0.623016 0.760877 0.87458 0.365429 -0.318701 252 66 54
0.208089 0.398267 0.224429 -0.637544 -0.302519 -0.708534 158 182 254
0.634856 0.979663 0.152481 0.263533 0.946215 -0.187691 215 78 46
0.599251 0.830139 0.385381 0.770843 -0.620208 -0.145409 130 112 173
0.459417 0.764116 0.613878 0.725483 -0.553029 0.409675 235 5 234
0.936203 0.543664 0.701584 0.9196 -0.236646 -0.313584 186 14 219
0.62589 0.586694 0.599995 -0.38106 -0.65028 -0.657214 9 60 217
0.241976 0.745421 0.492113 0.994504 0.0464674 0.0938225 206 12 53
0.617177 0.76295 0.123012 0.70525 -0.0362915 -0.708029 66 178 195
0.773068 0.420588 0.934197 0.118942 -0.119676 0.985662 237 219 6
0.0524146 0.719882 0.572988 0.927383 0.0161944 0.373762 169 181 212
0.454928 0.15749 0.861444 -0.15451 0.240205 -0.958347 20 229 135
0.969144 0.359942 0.157643 0.984705 -0.0507441 -0.166679 46 105 78
0.383519 0.354553 0.292882 -0.119109 0.674107 0.728967 45 113 6
0.802207 0.00455959 0.230986 0.0555459 -0.995961 0.0705492 46 75 3
0.646007 0.523663 0.31828 0.838973 0.418218 -0.348163 101 252 234
0.906413 0.742897 0.517663 0.88091 0.0783057 0.466761 171 130 115
0.119339 0.751648 0.822137 0.644682 -0.628695 0.434889 109 141 183
0.19395 0.607104 0.584487 0.376385 0.899841 -0.220499 250 101 254
0.0836541 0.729532 0.734339 0.661856 -0.720441 -0.207149 183 14 101
0.616727 0.0180207 0.823229 -0.298006 -0.948598 0.106553 50 202 84
0.439643 0.224212 0.346304 -0.454475 -0.383798 0.803836 57 31 250
0.916152 0.324787 0.0958512 0.756489 -0.0824431 -0.64879 48 33 183
0.756611 0.972741 0.238636 0.228443 0.973471 0.0129907 88 255 242
0.352884 0.959554 0.234664 0.10728 0.926731 0.360085 237 110 244
0.242492 0.930948 0.541133 0.0818121 -0.939557 0.332475 235 224 2
0.608419 0.00866302 0.278155 0.24109 0.966983 0.082583 163 51 223
0.876766 0.0684503 0.869814 0.395314 0.84716 0.35503 96 172 204
0.855623 0.586143 0.839528 0.786359 0.107612 0.608325 103 109 210
0.157358 0.636435 0.273539 -0.0725782 -0.536716 -0.840635 178 226 124
0.487831 0.661677 0.188736 -0.0690859 -0.895121 0.440438 248 225 180
0.170191 0.0775303 0.139732 0.173208 0.168942 -0.970287 19 226 51
0.900575 0.790054 0.56473 0.956254 0.28764 -0.0533127 132 216 25
0.988413 0.807339 0.165231 0.996707 -0.0283861 -0.0759552 140 27 47
0.294116 0.839098 0.156157 -0.497199 0.101655 0.861661 69 72 132
0.48059 0.794204 0.960581 -0.227756 0.377429 -0.897594 75 178 112
0.375103 0.292869 0.487584 -0.613799 -0.772278 -0.163821 43 173 133
0.349316 0.488406 0.528124 0.863122 -0.0661351 -0.500646 59 104 206
0.80655 0.0190027 0.551785 -0.0111344 -0.995816 0.0907056 178 24 203
0.698283 0.0250566 0.0327157 -0.203765 0.872366 0.444361 242 253 179
0.808222 0.541431 0.383774 0.711561 -0.696398 -0.0933348 244 81 106
0.552573 0.740116 0.341567 0.716271 -0.317835 0.621238 7 160 245
0.531944 0.366422 0.769433 -0.676141 -0.317734 -0.66474 111 0 152
0.832473 0.337671 0.51042 -0.526517 -0.426659 -0.735352 166 26 155
0.0163915 0.311264 0.671151 0.978326 0.131454 0.159995 171 88 99
0.838734 0.573847 0.371156 0.804229 -0.590684 -0.0656358 201 110 131
0.69088 0.514372 0.956011 -0.0200914 0.0453752 0.998768 113 94 215
0.473587 0.259228 0.763702 0.780583 -0.10794 0.615661 144 165 26
0.694154 0.386497 0.229519 -0.272406 0.534603 -0.799997 70 87 69
0.670617 0.828989 0.959785 0.145483 0.209133 0.967005 51 207 84
0.635355 0.667287 0.284709 0.328754 -0.617638 -0.714454 248 113 126
0.848274 0.276013 0.0548762 -0.0374436 -0.029652 0.998859 228 129 33
0.0312337 0.363439 0.199145 0.982528 -0.115501 -0.145936 235 255 205
0.47734 0.347617 0.969589 -0.0403564 -0.085592 -0.995513 21 158 164
0.559309 0.941157 0.781103 -0.601574 0.769046 0.216049 58 25 25
0.696127 0.431422 0.479946 -0.0832068 0.851409 0.517861 84 156 144
0.504691 0.433683 0.895805 -0.615687 0.375697 -0.692663 153 196 62
0.220829 0.0804637 0.929906 0.343844 -0.682736 0.644704 233 93 162
0.80589 0.833817 0.240304 -0.163077 0.49188 -0.855255 121 180 68
0.668193 0.136889 0.720985 -0.441699 -0.700886 -0.560055 157 20 132
0.665132 0.203726 0.907186 0.109805 -0.959272 0.26027 4 246 200
0.87373 0.664271 0.156889 0.820372 -0.16027 -0.548912 169 210 81
0.737144 0.0968606 0.798549 -0.193917 -0.95261 0.234371 22 194 172
0.163472 0.123408 0.772818 -0.135675 -0.253024 -0.957899 76 53 177
0.0525783 0.546241 0.376794 0.987833 -0.151578 -0.0347822 141 63 253
0.149198 0.271189 0.732615 0.708423 -0.345893 0.61522 2 116 125
0.367705 0.408972 0.700234 0.774833 -0.386185 -0.500495 120 136 211
0.610996 0.0638881 0.235056 -0.372107 -0.891379 -0.258804 232 173 168
0.719032 0.836021 0.138902 -0.376715 -0.261388 0.888685 136 247 248
0.139463 0.847174 0.944989 0.467578 -0.236299 -0.851783 81 64 27
0.742839 0.882149 0.591333 0.0903216 0.883222 0.460176 158 32 73
0.138322 0.158394 0.710194 0.974268 0.220336 -0.047471 54 182 70
0.439901 0.194371 0.86563 -0.23369 0.9147 -0.329716 27 129 126
0.102628 0.890749 0.585159 0.819816 -0.336336 -0.463444 60 85 203
0.338382 0.0378847 0.834179 -0.0193069 0.858081 -0.513152 196 227 186
0.541147 0.886604 0.244776 -0.34721 0.912203 0.217555 161 227 83
0.75723 0.389459 0.159151 0.587438 -0.208553 0.781935 234 245 197
0.158886 0.44603 0.87797 0.122245 0.344 -0.930978 205 111 229
0.468665 0.752321 0.505464 -0.640251 0.762259 0.0950793 222 164 177
0.35849 0.567905 0.725071 0.548563 0.455127 -0.701383 187 141 206
0.530637 0.421702 0.244191 -0.377611 -0.782953 0.494363 127 40 234
0.359495 0.77559 0.568023 -0.534219 -0.721654 -0.440256 153 210 168
0.782558 0.265534 0.244548 -0.455577 -0.575339 -0.67929 73 101 65
0.71632 0.430996 0.951768 0.0628876 -0.0622421 0.996078 103 187 0
0.349638 0.55105 0.536643 0.738482 -0.477139 0.476427 110 157 76
0.341315 0.79899 0.835892 -0.282147 -0.627022 0.726111 120 130 215
0.0826296 0.207124 0.840509 0.995037 0.0915238 -0.0390365 159 19 69
0.0445504 0.399076 0.277919 0.964618 0.181657 0.191082 141 93 156
0.345445 0.678067 0.146869 -0.00312835 -0.857625 0.514266 243 215 66
0.681117 0.628621 0.590457 0.132487 0.40825 -0.903205 232 98 143
0.53728 0.519907 0.737618 0.706726 0.385757 0.593068 129 82 175
0.292037 0.403625 0.719543 0.658199 -0.310468 -0.685846 162 61 233
0.387992 0.46451 0.828421 0.971795 -0.0267164 -0.234308 176 2 61
0.160576 0.938266 0.185337 -0.251179 0.880849 0.401266 28 225 25
0.636183 0.162526 0.473039 0.993037 -0.0976496 0.0658937 186 33 0
0.853017 0.221985 0.0856342 0.00018942 -0.0717173 0.997425 176 87 193
0.331685 0.353615 0.943213 -0.130028 -0.300863 -0.944762 252 21 184
0.836738 0.687767 0.778638 -0.582287 -0.766877 0.269891 16 44 18
0.767081 0.14343 0.890845 0.442159 0.616773 -0.65122 121 85 36
0.238693 0.701532 0.879835 0.988225 -0.0231174 -0.15125 177 149 173
0.873224 0.592994 0.399181 0.768868 -0.341276 0.540715 207 0 125
0.756876 0.487536 0.433196 0.330051 -0.88109 -0.338742 106 82 209
0.225218 0.826757 0.334946 0.248861 0.948914 0.193988 165 190 240
0.501772 0.782664 0.453935 -0.707317 0.7056 -0.0427824 19 153 41
0.628541 0.0695511 0.312667 -0.162892 -0.907743 0.386613 237 201 130
0.443255 0.180212 0.547054 -0.0226454 0.979318 -0.201057 148 28 190
0.936378 0.205815 0.209645 0.981933 -0.0909696 0.165931 57 233 94
0.161637 0.707295 0.4867 0.889317 0.293742 0.350474 213 8 135
0.406201 0.674144 0.68277 0.0578854 -0.848779 -0.52557 189 239 80
0.442651 0.654407 0.184521 0.31583 0.80035 -0.509599 195 194 229
0.00173171 0.650188 0.169607 0.985092 -0.108795 0.133259 153 146 231
0.67849 0.873743 0.538868 -0.252687 -0.931207 -0.262682 206 157 121
0.529723 0.118603 0.581561 0.0341154 -0.89526 0.444236 203 145 179
0.876611 0.165636 0.813217 0.916443 -0.171381 0.361608 254 71 242
0.902657 0.507012 0.392475 -0.62452 -0.15902 -0.764649 64 197 244
0.791777 0.231552 0.499623 0.232377 -0.815643 0.529837 87 178 109
0.00104958 0.646526 0.852481 0.915748 -0.222958 -0.334208 35 73 87
0.389608 0.636688 0.0150376 -0.211515 0.00160588 0.977374 191 62 107
0.881459 0.237575 0.174428 0.85017 -0.513517 -0.116235 74 251 199
0.510209 0.431645 0.548069 -0.00221811 -0.0981116 -0.995173 236 68 53
0.965207 0.506103 0.0266968 0.7645 0.142376 -0.628704 213 196 121
0.313224 0.667182 0.223758 0.0875582 -0.16664 0.982122 83 66 249
0.0244128 0.194256 0.0690699 0.0898118 0.157115 -0.983488 87 213 112
0.0239252 0.544434 0.313706 0.981446 -0.14873 -0.121009 93 74 100
0.322787 0.0186106 0.528141 0.190922 -0.981597 0.00407076 121 0 73
0.205616 0.449238 0.259749 -0.381711 0.774137 0.504984 82 55 141
0.977007 0.97855 0.0833156 0.46547 0.681849 -0.564287 112 152 42
0.518621 0.11194 0.799626 0.506892 -0.0858137 0.857728 56 123 51
0.608122 0.0452029 0.820869 -0.271 -0.955114 0.119648 41 146 125
0.813569 0.885478 0.842032 -0.4484 -0.273962 -0.850813 143 178 15
0.226341 0.326591 0.969302 -0.0827105 -0.143431 0.986198 215 185 100
0.365215 0.61876 0.982 0.161923 -0.121165 0.979337 184 220 80
0.644371 0.0340826 0.242767 -0.270924 -0.949233 -0.159865 243 138 120
0.718371 0.0996679 0.743617 -0.302214 -0.810619 -0.501562 180 30 163
0.635933 0.104721 0.538511 0.467863 0.870758 -0.151279 172 75 144
0.8586 0.732024 0.432115 0.872987 0.45271 -0.181513 193 171 130
0.462111 0.150541 0.867794 0.233356 0.521383 -0.820795 111 140 195
0.658424 0.321547 0.829621 -0.264071 0.9645 0.00253705 11 95 237
0.522297 0.617903 0.167515 -0.405336 0.896126 -0.180724 171 207 86
0.408924 0.820525 0.0954511 0.597096 0.129037 0.791723 187 95 81
0.464064 0.578708 0.767257 0.870711 0.299317 0.39022 82 199 198
0.864025 0.653986 0.281141 0.843514 -0.0744899 -0.531917 43 8 13
0.628123 0.483125 0.330623 0.134258 -0.704061 0.697332 36 73 142
0.482871 0.567259 0.361559 0.746135 0.325003 -0.581081 85 21 10
0.946531 0.295604 0.538854 0.917723 0.114746 0.380286 192 174 236
0.902609 0.0370066 0.463581 0.555177 -0.806295 0.204122 25 150 29
0.179825 0.00248159 0.507313 -0.304107 -0.945089 -0.119688 46 71 159
0.439602 0.197863 0.868466 -0.23369 0.9147 -0.329716 19 153 215
0.210603 0.748564 0.146982 0.11349 -0.181418 -0.976836 106 153 120
0.425193 0.178797 0.354786 -0.445622 0.363767 -0.817982 49 252 200
0.563814 0.87767 0.0542557 0.476096 0.0443934 -0.878272 146 167 81
0.549871 0.25893 0.795251 0.905411 -0.238785 0.351018 17 184 202
0.854307 0.238498 0.544711 0.781657 0.147569 0.606 145 39 211
0.38753 0.146345 0.366807 -0.465391 0.770634 -0.435356 8 44 167
0.342338 0.487545 0.120909 -0.13973 0.314818 -0.938811 73 164 26
0.176633 0.0858303 0.4232 -0.483952 -0.858247 -0.17089 31 62 61
0.546446 0.217423 0.707034 0.777603 0.106675 -0.61964 202 216 255
0.421952 0.557612 0.335063 0.192186 -0.291078 0.937197 118 49 206
0.0496597 0.0923455 0.0884586 -0.18253 0.243983 -0.952447 69 219 10
0.81178 0.246373 0.453826 -0.126922 -0.593789 0.794547 3 173 168
0.432121 0.741476 0.798205 0.675442 -0.593659 0.437434 88 95 48
0.726223 0.293086 0.821638 0.84663 -0.00204113 -0.532178 178 150 21
0.974676 0.25491 0.449841 0.912598 0.0721674 0.402438 170 199 59
0.106675 0.561934 0.441424 0.93272 -0.351106 0.0822045 63 36 144
0.965283 0.130635 0.761392 0.91081 -0.210626 -0.355051 153 64 96
0.122699 0.484241 0.92083 0.603053 -0.0137941 -0.797582 215 81 172
0.143112 0.382398 0.815521 0.661819 -0.477074 0.57827 85 136 162
0.228861 0.929074 0.857032 -0.274671 0.961456 -0.0126198 227 233 201
0.626991 0.325254 0.262834 0.323774 0.362513 0.873931 27 117 143
0.952906 0.590608 0.0824046 0.627324 0.134917 -0.766982 76 243 117
0.491572 0.496462 0.888848 0.624096 -0.364257 -0.691247 52 208 17
0.499367 0.245441 0.401786 -0.236105 -0.815191 0.528885 45 21 128
0.392698 0.869882 0.260049 -0.280756 0.527988 0.801501 189 248 224
0.794738 0.803061 0.292388 0.827854 0.56094 -0.0021443 62 64 0
0.662253 0.116117 0.326788 -0.0706829 -0.737344 0.67181 234 116 48
0.37252 0.330938 0.548388 0.25202 0.418845 -0.872384 77 11 117
0.84076 0.899432 0.765537 0.433542 -0.899727 0.0503333 87 239 136
0.790241 0.795249 0.67608 0.952236 -0.260959 -0.158576 56 179 230
0.955706 0.0689492 0.318901 0.474871 -0.873063 0.110717 218 117 214
0.168321 0.592428 0.658114 -0.00887486 -0.909009 -0.416682 97 86 76
0.201839 0.0747565 0.837807 -0.552106 0.72867 -0.405239 144 79 8
0.506789 0.695611 0.984849 0.0668672 0.112633 0.991384 141 133 197
0.180228 0.793845 0.39224 0.977777 0.157021 0.138911 166 213 217
0.553883 0.908651 0.00459226 -0.109836 -0.312699 0.94348 28 95 69
0.0282565 0.351244 0.416386 0.92403 0.0444877 -0.379722 70 135 188
0.917097 0.195603 0.157697 0.842436 0.135245 0.521546 100 142 30
0.231375 0.4032 0.967331 0.00983053 0.0575458 0.998294 185 237 126
0.903896 0.922081 0.832987 0.150505 0.911562 0.382627 124 54 77
0.578382 0.350678 0.721605 0.845152 0.0640888 0.530671 94 114 78
0.287703 0.229013 0.286891 0.531575 -0.321632 -0.783569 24 49 174
0.00621361 0.752575 0.11407 0.977583 -0.130597 0.165157 162 241 39
0.570056 0.422923 0.645661 0.839019 0.271328 0.471623 199 116 225
0.781912 0.488744 0.234526 0.867503 -0.281509 0.410112 204 163 67
0.554274 0.115289 0.297001 0.00166156 0.803437 -0.595388 54 236 113
0.522732 0.540677 0.157446 0.0372598 -0.0675743 0.997018 213 179 193
0.193742 0.548289 0.170692 0.456885 -0.5274 -0.716313 74 29 212
0.958344 0.703017 0.361557 0.965717 0.0855981 -0.24508 186 176 115
0.305499 0.0501922 0.00839945 -0.0564912 -0.0094409 -0.998358 32 164 135
0.972069 0.507073 0.29418 0.979594 0.0788141 0.184887 241 155 159
0.407926 0.0420136 0.333721 0.188383 -0.981896 0.0197862 1 90 108
0.218947 0.147621 0.763694 -0.327421 -0.2699 -0.905511 43 18 60
0.280326 0.847291 0.789904 0.383465 0.920712 0.0724153 95 127 253
0.853183 0.646525 0.361933 0.873147 -0.115003 -0.473697 5 196 126
0.365705 0.831889 0.95035 0.201318 0.353906 -0.913357 37 58 59
0.21093 0.276375 0.110131 -0.449994 0.111745 -0.886013 171 1 115
0.229152 0.363945 0.4617 0.419068 -0.751039 -0.510217 20 38 26
0.297783 0.65836 0.662149 0.0405213 -0.94176 0.333836 76 10 26
0.850492 0.0341275 0.848121 0.0238974 -0.996912 -0.0747968 42 158 222
0.133325 0.297379 0.407366 0.947765 -0.116179 -0.297059 89 81 145
0.844019 0.0116476 0.0494455 0.200673 -0.62196 -0.756899 4 250 188
0.648154 0.429878 0.825097 0.597028 0.538214 -0.594881 188 118 110
0.913652 0.895476 0.655187 0.904396 -0.426259 0.0192822 138 68 91
0.0757917 0.590112 0.0399401 -0.317717 0.153798 -0.935629 60 77 102
0.631652 0.586386 0.948972 -0.0132689 0.136469 0.990555 193 112 226
0.352058 0.184751 0.686841 0.40262 0.115722 0.908023 55 174 186
0.73295 0.667303 0.173323 0.116801 0.854179 -0.506691 70 91 224
0.448367 0.604355 0.268148 0.748653 0.660804 -0.0534459 166 248 136
0.599665 0.993909 0.928546 -0.0830357 0.883332 0.461335 83 153 44
0.78891 0.797829 0.943623 0.151094 0.137959 -0.978845 141 76 238
0.195437 0.393415 0.239395 -0.566634 -0.106819 -0.817016 211 243 31
0.171538 0.939781 0.506545 -0.144538 -0.96297 0.227591 190 156 18
0.958737 0.952312 0.678814 0.952626 0.224531 -0.205155 23 254 139
0.748427 0.888244 0.552468 0.249439 0.924103 0.289507 91 162 67
0.438088 0.326772 0.192293 0.20096 0.889582 0.410194 140 243 140
0.963941 0.708182 0.87488 0.993575 -0.0114248 0.112594 51 227 30
0.414638 0.474524 0.19013 0.967475 -0.0807778 -0.239721 73 141 126
0.908507 0.365338 0.685216 0.95161 -0.228678 -0.205295 224 237 68
0.0577989 0.00191234 0.0482 -0.103841 0.147502 -0.983596 145 160 246
0.991791 0.0874154 0.118106 0.769568 -0.483892 -0.416668 147 88 91
0.0180985 0.227601 0.806865 0.982597 0.050961 -0.178622 184 250 93
0.82323 0.0485944 0.345955 0.0198803 -0.997511 0.0676569 198 70 179
0.599513 0.665722 0.103731 -0.127374 0.695948 -0.706705 226 82 155
0.483617 0.185774 0.115 -0.0274796 -0.340038 -0.94001 148 241 99
0.984562 0.920856 0.911447 -0.455876 -0.627422 -0.631283 155 181 150
0.863582 0.254592 0.44325 -0.366336 0.55521 -0.746686 1 44 187
0.54339 0.387915 0.440012 0.0838819 -0.512289 -0.854707 196 170 98
0.188998 0.68856 0.311825 0.339805 -0.494057 0.800275 194 242 230
0.566022 0.144984 0.880067 0.115895 0.514066 -0.849885 0 5 150
0.0886531 0.190813 0.379915 0.932414 0.221776 -0.285342 11 207 246
0.274053 0.370845 0.551686 -0.453219 0.891103 -0.0229877 190 86 199
0.87735 0.290836 0.378922 0.839806 -0.542799 -0.00969404 57 137 17
0.0325053 0.444241 0.348078 0.989521 -0.100699 -0.103479 8 31 81
0.663558 0.574517 0.885252 -0.130076 0.181113 0.974822 68 218 51
0.505993 0.334488 0.0707253 -0.36421 -0.178109 0.914127 58 137 204
0.960545 0.968207 0.786625 0.872571 -0.105456 -0.476968 175 165 125
0.02653 0.0189963 0.646024 0.58237 0.809604 0.0733881 192 153 103
0.201352 0.929195 0.301296 0.0639396 0.977619 0.200432 122 20 85
0.579659 0.870278 0.62056 0.498132 -0.724868 0.475847 9 202 233
0.103972 0.311316 0.882976 0.684361 0.448888 -0.574587 45 10 139
0.290601 0.310375 0.660888 0.245884 -0.96135 -0.123886 75 137 82
0.781548 0.463514 0.31899 -0.3563 0.933776 0.0333723 114 149 191
0.326496 0.859128 0.650675 -0.165051 -0.659495 -0.733365 151 73 148
0.547612 0.891213 0.569103 -0.741138 0.641679 -0.197388 29 2 129
0.741505 0.134399 0.146349 -0.0796087 -0.188991 -0.978747 136 49 177
0.633037 0.798944 0.793618 0.459782 0.80926 -0.365648 42 222 31
0.97536 0.685002 0.117798 0.954988 0.137789 -0.262701 197 82 27
0.474703 0.546796 0.240211 0.778904 0.435039 -0.451718 228 91 251
0.790054 0.622793 0.563632 0.698561 -0.337125 0.631157 136 40 57
0.000436036 0.970661 0.500375 0.654049 0.753833 -0.0628974 95 227 69
0.912925 0.0984413 0.475116 0.93397 -0.222364 0.27974 166 134 124
0.610887 0.111985 0.340427 -0.0322257 -0.862012 0.505863 243 83 216
0.290231 0.562962 0.240086 -0.408102 0.272145 -0.87143 20 132 254
0.958057 0.452742 0.85303 0.936274 -0.147401 0.318847 149 199 198
0.683953 0.264801 0.357005 0.822195 -0.351116 -0.44801 233 144 152
0.609739 0.937795 0.342341 -0.137051 -0.982404 -0.126883 59 85 179
0.791572 0.748063 0.0722472 -0.0613781 0.375864 -0.92464 220 62 56
0.934053 0.47143 0.948682 -0.624665 0.055332 -0.77893 61 216 45
0.925705 0.229548 0.788517 0.961992 0.0720634 -0.263396 67 126 116
0.055803 0.255393 0.111378 0.979248 0.0452717 0.197542 56 221 83
0.47098 0.315994 0.329665 -0.106588 0.46707 0.877773 55 158 75
0.316247 0.364268 0.652564 0.792574 -0.580969 -0.185206 137 135 43
0.761861 0.371543 0.602202 -0.435905 0.110402 -0.893195 128 94 129
0.29949 0.37604 0.557636 0.787971 -0.615648 -0.00890688 6 249 226
0.944881 0.378789 0.268121 0.994949 0.100075 0.00786412 218 12 44
0.650331 0.68436 0.305752 -0.383637 -0.0635509 -0.921295 238 158 160
0.028127 0.143533 0.488212 0.985195 0.148667 0.0853741 61 90 142
0.189196 0.227155 0.788635 -0.421379 0.204035 -0.883634 217 62 43
0.686139 0.0175114 0.489504 -0.186688 -0.975995 0.112171 194 149 22
0.203399 0.962207 0.278706 -0.0447742 0.959872 0.276842 178 229 235
0.176665 0.00180303 0.74685 0.000382108 -0.997449 0.0713827 91 20 177
0.825008 0.891763 0.524208 -0.484606 -0.814485 -0.319016 92 169 48
0.876508 0.328947 0.526585 0.737219 0.505169 0.448679 41 34 224
0.935069 0.914717 0.465493 0.820134 0.553743 -0.144042 21 161 251
0.549474 0.335791 0.621022 0.99855 -0.0536546 0.00432519 16 5 161
0.070022 0.0559204 0.984931 0.538704 0.285386 -0.792687 188 15 109
0.3996 0.702365 0.0180335 0.0391143 -0.0486432 0.99805 178 218 120
0.181778 0.132144 0.70779 0.919588 0.0785006 -0.384961 253 127 33
0.497701 0.276451 0.866508 0.861336 0.138369 0.48883 26 80 142
0.370908 0.848261 0.24617 -0.47868 0.0717119 0.875056 226 195 255
0.087258 0.0645608 0.594882 -0.690447 -0.717437 -0.0925563 124 31 244
0.207304 0.0313683 0.933456 0.314072 -0.785988 0.532523 31 72 61
0.398309 0.826523 0.93299 0.317315 0.621234 -0.716505 171 208 32
0.324288 0.355723 0.795513 -0.399318 0.914537 0.0645448 70 238 209
0.11268 0.435044 0.0714047 0.987994 0.154251 0.00863393 104 186 110
0.884613 0.836875 0.265652 0.960675 0.275672 0.0332959 32 158 29
0.317874 0.0557314 0.0602903 -0.0914942 -0.134937 -0.986621 126 115 232
0.469225 0.651793 0.109532 0.141377 -0.617218 -0.773986 219 205 151
0.26264 0.678715 0.354908 0.807343 -0.43966 0.393568 111 149 145
0.0335949 0.835963 0.935834 0.765741 -0.485965 -0.421282 172 213 90
0.323061 0.31511 0.128241 0.68792 -0.37283 0.622707 184 127 57
0.342744 0.61701 0.11263 0.348073 -0.45059 0.822079 184 220 0
0.555276 0.187187 0.490867 -0.0437873 0.992378 0.115189 34 211 126
0.207581 0.365626 0.247787 0.403365 0.762711 0.505538 181 236 119
0.645104 0.866023 0.447143 0.00824465 -0.991724 -0.128123 129 159 32
0.557427 0.169601 0.337986 -0.228192 -0.667635 0.708655 93 47 14
0.279958 0.963819 0.89387 0.137222 -0.984751 -0.106933 51 203 14
0.544989 0.00714151 0.498691 0.0386921 -0.956708 0.288465 36 165 4
0.442997 0.551263 0.932832 0.3962 -0.110873 -0.911445 38 121 138
0.669172 0.835819 0.51855 0.0701809 -0.912143 -0.403819 33 151 5
0.283922 0.640898 0.00772423 0.0645712 0.243971 -0.96763 154 94 111
0.101497 0.080014 0.392759 0.739774 0.672542 0.0205296 140 95 46
0.628986 0.037829 0.539724 -0.369499 -0.905161 0.210129 43 140 129
0.981258 0.0201873 0.142055 0.537827 -0.819425 -0.198205 34 180 206
0.71098 0.558353 0.380527 -0.0921292 -0.73342 -0.673504 141 190 211
0.0584335 0.334373 0.302338 0.904031 -0.414892 -0.102915 176 165 221
0.568464 0.89935 0.221604 0.00969933 0.999894 0.0108992 173 234 83
0.974331 0.92651 0.983097 0.30138 0.394311 0.868152 85 84 39
0.518641 0.257638 0.0374082 0.0199872 -0.0787387 -0.996695 40 181 50
0.392693 0.0439075 0.181281 0.0806863 -0.996713 0.00724461 15 197 52
0.417397 0.0416343 0.442478 0.157728 -0.986463 0.0448539 150 70 165
0.0488809 0.248585 0.83787 0.948043 0.166524 -0.271078 137 245 234
0.484294 0.15847 0.581968 -0.176458 -0.811025 0.557764 169 197 136
0.205184 0.229273 0.0446833 0.0449917 0.151276 0.987467 76 140 51
0.615225 0.411681 0.321961 0.115269 -0.94888 0.293837 103 165 54
0.830058 0.332658 0.579821 0.742974 0.158968 0.650168 33 133 61
0.895315 0.661714 0.479232 0.912745 -0.366203 0.181086 148 100 34
0.186743 0.546402 0.288234 -0.462747 -0.186544 -0.866641 150 42 82
0.677544 0.248263 0.376778 -0.442746 0.863943 0.239956 61 123 87
0.660078 0.803331 0.20185 0.773366 0.131866 -0.620094 117 2 94
0.0256954 0.469603 0.6601 0.984727 -0.0208919 0.172848 28 38 253
0.480417 0.960883 0.679124 0.474774 -0.773173 -0.420467 194 211 29
0.566945 0.452457 0.186259 0.795011 0.501589 -0.341125 232 72 229
0.714015 0.559342 0.0806049 -0.0174933 0.195167 0.980614 109 243 60
0.156535 0.353411 0.976997 -0.316674 -0.141147 0.937974 207 247 146
0.473723 0.636197 0.832049 0.966958 -0.179203 0.181323 87 252 74
0.462047 0.440703 0.231191 0.788181 0.328697 -0.520316 135 128 137
0.659415 0.903329 0.390072 0.176069 0.984374 -0.00283647 17 187 179
0.796817 0.398556 0.522838 0.915845 0.39795 -0.0535086 158 77 132
0.51629 0.293337 0.888198 0.152343 -0.187684 -0.970343 29 37 145
0.0320495 0.683975 0.859074 0.889848 -0.389577 -0.237487 68 34 188
0.604231 0.0632712 0.00557871 -0.0223429 -0.402256 -0.915255 183 125 2
0.827079 0.984673 0.876373 0.134756 0.901964 0.410246 2 223 206
0.15421 0.769813 0.802191 0.568256 -0.703079 0.427509 81 202 236
0.783523 0.660398 0.490516 0.73458 -0.550779 0.396276 140 180 24
0.0290642 0.52224 0.0823772 0.988223 -0.0401493 0.147659 115 21 36
0.0270721 0.348425 0.00239632 -0.351695 0.0215731 -0.935866 52 209 142
0.949218 0.563888 0.651753 0.92526 -0.314994 -0.211359 205 68 139
0.207272 0.395505 0.572975 0.808346 0.0327476 -0.587796 164 88 224
0.567922 0.92589 0.419829 0.10399 -0.994518 -0.0109822 179 109 203
0.175593 0.207137 0.964992 0.305463 0.156459 -0.939262 91 166 24
0.820656 0.754377 0.658561 0.992262 -0.0484715 0.114306 8 170 112
0.945161 0.119579 0.397741 0.905357 -0.363546 0.21946 249 79 145
0.197748 0.625777 0.156729 -0.195359 0.978901 0.0599024 241 122 120
0.16176 0.514435 0.939515 0.271125 -0.152387 -0.950405 158 74 129
0.552488 0.203373 0.542972 0.288796 -0.943082 0.164906 3 95 3
0.454628 0.744426 0.329182 0.82891 0.142082 -0.541037 70 32 113
0.0847947 0.447916 0.979063 0.609994 -0.012486 -0.792307 30 111 61
0.235603 0.283955 0.648844 0.713752 -0.624498 -0.317112 99 69 2
0.892148 0.474467 0.90921 0.679415 -0.00668142 0.733724 71 155 26
0.538319 0.794902 0.658049 0.936727 -0.34695 0.046558 213 25 238
0.787319 0.864933 0.839645 -0.549211 -0.195129 -0.812584 18 57 162
0.307834 0.262499 0.948632 0.186911 -0.313497 0.931012 121 19 163
0.80896 0.297484 0.629438 0.817917 -0.457727 0.348566 59 194 166
0.11126 0.232027 0.791336 0.853929 0.471641 -0.21991 253 101 214
0.750597 0.235198 0.142174 0.497382 0.00673426 0.867505 200 55 56
0.370082 0.961362 0.338258 -0.195361 0.967279 0.161878 228 134 148
0.422861 0.802497 0.76262 -0.218001 -0.764891 -0.60615 41 164 16
0.333719 0.92936 0.173063 0.378644 0.881233 0.282943 115 84 30
0.0189083 0.00912588 0.897881 0.799015 0.507901 -0.321886 249 179 98
0.271036 0.244037 0.115065 0.687505 -0.175178 0.704734 172 223 116
0.0697882 0.34074 0.371909 0.93558 -0.166257 -0.311526 105 142 18
0.201123 0.0881104 0.682652 0.454774 -0.816569 0.355521 148 36 187
0.479284 0.620229 0.334359 0.437548 0.692776 -0.573247 170 136 95
0.580787 0.0819426 0.168988 0.297358 0.945858 -0.130116 244 232 111
0.63271 0.146551 0.760364 -0.623206 -0.564777 -0.540963 84 87 202
0.289191 0.0302504 0.652924 0.0619477 -0.993151 0.0990615 129 112 240
0.456604 0.651045 0.856834 0.835305 -0.165963 -0.524139 244 26 202
0.63406 0.930836 0.75906 -0.0554809 0.994219 0.0919282 104 158 18
0.0517836 0.862247 0.0572169 -0.499 0.109041 -0.859714 23 194 134
0.401246 0.399649 0.800032 0.842457 -0.363417 -0.397737 55 242 16
0.862307 0.453727 0.440024 -0.434081 -0.536025 -0.724052 71 104 12
0.801838 0.0122052 0.967875 0.061294 0.675531 -0.73478 136 130 168
0.136188 0.207401 0.969118 0.487285 0.0643073 -0.870872 203 228 251
0.854848 0.864309 0.185161 -0.499309 0.363029 -0.786703 17 160 157
0.329717 0.300988 0.609583 -0.605289 -0.760214 0.23601 11 104 21
0.94857 0.750556 0.461314 0.980934 0.177795 -0.0784639 162 95 56
0.93081 0.146548 0.711737 0.978103 -0.059149 -0.19954 28 239 114
0.262641 0.541275 0.417156 0.602407 -0.727555 0.328282 218 160 155
0.369563 0.0258211 0.120901 0.00690536 -0.988821 -0.148949 222 226 189
0.795942 0.531442 0.213261 0.907038 -0.361642 0.21563 237 166 151
0.684225 0.563996 0.909962 -0.017197 0.0192695 0.999666 119 93 151
0.732391 0.0246265 0.83526 0.201612 0.975711 -0.0856785 174 64 69
0.75473 0.23672 0.173571 0.244202 -0.208036 0.947147 142 108 118
0.497328 0.147895 0.0552447 -0.247645 0.169765 0.953861 3 253 139
